<?xml version="1.0" encoding="UTF-8"?>
<svg width="191px" height="61px" viewBox="0 0 191 61" version="1.1" xmlns="http://www.w3.org/2000/svg" xmlns:xlink="http://www.w3.org/1999/xlink">
    <!-- Generator: Sketch 46.1 (44463) - http://www.bohemiancoding.com/sketch -->
    <title>jsmlt-logo</title>
    <desc>Created with Sketch.</desc>
    <defs></defs>
    <g id="Page-1" stroke="none" stroke-width="1" fill="none" fill-rule="evenodd">
        <g id="Brain-Webby-(2)" transform="translate(1.000000, 2.000000)" stroke="#DC403B" stroke-width="2" stroke-linecap="round">
            <path d="M26,49.227 C26,57.102 35.048,60.727 36,53.832 C36.422,50.772 39.236,52.303 40.611,49.445 C41.356,47.897 40.96,46.642 42.46,45.872 C45.226,44.452 47.193,40.411 47,37.227 C46.895,35.501 49.792,32.668 50.719,31.227 C52.427,28.569 52.427,24.885 50.719,22.227 C49.792,20.786 49.348,17.953 49.452,16.227 C49.645,13.043 47.972,9.647 45.205,8.227 C43.706,7.457 42.491,7.776 41.745,6.227 C40.371,3.37 39.083,3.028 36,3.227 C34.329,3.335 33.583,0.25 31,0.25 C30.987,0.25 30.98,0.227 30.966,0.227 C28.292,0.227 26,1.672 26,3.227 L26,49.227 L26,49.227 Z" id="Stroke-233"></path>
            <path d="M26,49.227 C26,57.102 16.952,60.727 16,53.832 C15.577,50.772 12.764,52.303 11.389,49.445 C10.644,47.897 11.04,46.642 9.54,45.872 C6.774,44.452 4.807,40.411 5,37.227 C5.104,35.501 2.207,32.668 1.281,31.227 C-0.427,28.569 -0.427,24.885 1.281,22.227 C2.207,20.786 2.652,17.953 2.548,16.227 C2.355,13.043 4.028,9.647 6.795,8.227 C8.294,7.457 9.509,7.776 10.255,6.227 C11.629,3.37 12.917,3.028 16,3.227 C17.671,3.335 18.417,0.644 21,0.25 C21.013,0.248 21.022,0.235 21.034,0.227 C22.482,-0.755 26,1.672 26,3.227 L26,49.227 L26,49.227 Z" id="Stroke-235"></path>
            <path d="M41,47.227 C41,43.911 38.316,41.227 35,41.227" id="Path"></path>
            <path d="M11,47.227 C11,43.911 13.684,41.227 17,41.227" id="Path"></path>
            <path d="M38,11.227 C38,9.016 39.789,7.227 42,7.227" id="Path"></path>
            <path d="M15,12.227 C15,9.463 12.764,7.227 10,7.227" id="Path"></path>
            <path d="M26,12.227 C22.131,12.227 19,15.358 19,19.227 C19,23.096 15.869,26.227 12,26.227" id="Path"></path>
            <path d="M47,36.227 C47,32.358 43.869,29.227 40,29.227 C36.131,29.227 33,26.096 33,22.227" id="Path"></path>
            <path d="M21.83,45.227 C19.39,42.787 19.39,38.838 21.83,36.399" id="Path"></path>
            <path d="M21.83,36.399 C19.39,33.959 19.39,30.01 21.83,27.57" id="Path"></path>
            <path d="M31.518,30.913 C33.772,33.167 33.772,36.816 31.518,39.07" id="Path"></path>
            <path d="M31.518,47.227 C29.264,44.973 29.264,41.324 31.518,39.07" id="Path"></path>
            <path d="M30.631,12.315 C33.771,11.764 36.758,13.858 37.309,16.998" id="Path"></path>
            <path d="M43.988,21.681 C40.848,22.233 37.861,20.138 37.309,16.998" id="Path"></path>
            <path d="M4.914,22.413 C5.496,20.835 7.244,20.029 8.821,20.611" id="Path"></path>
            <path d="M12.729,18.81 C12.147,20.388 10.399,21.194 8.821,20.611" id="Path"></path>
            <path d="M9.107,30.227 C10.684,30.809 11.49,32.557 10.908,34.135" id="Path"></path>
            <path d="M12.709,38.043 C11.131,37.46 10.326,35.713 10.908,34.135" id="Path"></path>
        </g>
        <text id="JSMLT" font-family="Roboto-Light, Roboto" font-size="40" font-weight="300" fill="#DC403B">
            <tspan x="65" y="45">JSMLT</tspan>
        </text>
    </g>
</svg>